<mxfile host="app.diagrams.net" modified="2022-01-11T21:36:43.076Z" agent="5.0 (X11)" etag="JXvn8rXuBZ5dFl5-mgRH" version="16.2.4" type="github">
  <diagram id="yN3T5SvDYrotCyjHOx6s" name="Page-1">
    <mxGraphModel dx="1182" dy="730" grid="1" gridSize="10" guides="1" tooltips="1" connect="1" arrows="1" fold="1" page="1" pageScale="1" pageWidth="850" pageHeight="1100" math="0" shadow="0">
      <root>
        <mxCell id="0" />
        <mxCell id="1" parent="0" />
        <mxCell id="9zkR6LWzIAb3a3dBUjrS-1" value="" style="verticalLabelPosition=bottom;sketch=0;html=1;fillColor=#282828;strokeColor=none;verticalAlign=top;pointerEvents=1;align=center;shape=mxgraph.cisco_safe.people_places_things_icons.icon1;" parent="1" vertex="1">
          <mxGeometry x="100" y="50" width="46.5" height="50" as="geometry" />
        </mxCell>
        <mxCell id="9zkR6LWzIAb3a3dBUjrS-4" value="&lt;h1 style=&quot;font-size: 16px&quot;&gt;Hub Council&lt;br&gt;&lt;/h1&gt;&lt;p&gt;1 person per hub, regular meetings&lt;br&gt;&lt;/p&gt;&lt;p&gt;decides about LEAD profile guidelines&lt;br&gt;&lt;/p&gt;" style="text;html=1;strokeColor=none;fillColor=none;spacing=5;spacingTop=-20;whiteSpace=wrap;overflow=hidden;rounded=0;" parent="1" vertex="1">
          <mxGeometry x="160" y="40" width="290" height="90" as="geometry" />
        </mxCell>
        <mxCell id="9zkR6LWzIAb3a3dBUjrS-5" value="&lt;h1&gt;&lt;font style=&quot;font-size: 16px&quot;&gt;Guidelines / Parameters&lt;br&gt;&lt;/font&gt;&lt;/h1&gt;&lt;p&gt;What are the requirements for a profile to be accepted? &lt;br&gt;&lt;/p&gt;&lt;p&gt;Especially which qualifications are necessary/sufficient?&lt;br&gt;&lt;/p&gt;" style="text;html=1;strokeColor=none;fillColor=none;spacing=5;spacingTop=-20;whiteSpace=wrap;overflow=hidden;rounded=0;" parent="1" vertex="1">
          <mxGeometry x="160" y="140" width="330" height="120" as="geometry" />
        </mxCell>
        <mxCell id="9zkR6LWzIAb3a3dBUjrS-6" value="New Profile / Profile change" style="swimlane;childLayout=stackLayout;resizeParent=1;resizeParentMax=0;startSize=20;fontSize=16;" parent="1" vertex="1">
          <mxGeometry x="120" y="280" width="600" height="790" as="geometry" />
        </mxCell>
        <mxCell id="YTCKpt7F9UdarP6xJWkP-17" value="LEAD candidate" style="swimlane;startSize=20;fontSize=16;" parent="9zkR6LWzIAb3a3dBUjrS-6" vertex="1">
          <mxGeometry y="20" width="200" height="770" as="geometry" />
        </mxCell>
        <mxCell id="YTCKpt7F9UdarP6xJWkP-20" value="submit profile data" style="rounded=0;whiteSpace=wrap;html=1;fontSize=16;strokeWidth=1;" parent="YTCKpt7F9UdarP6xJWkP-17" vertex="1">
          <mxGeometry x="40" y="59" width="120" height="60" as="geometry" />
        </mxCell>
        <mxCell id="YTCKpt7F9UdarP6xJWkP-24" value="update profile issue" style="rounded=0;whiteSpace=wrap;html=1;fontSize=16;strokeWidth=1;" parent="YTCKpt7F9UdarP6xJWkP-17" vertex="1">
          <mxGeometry x="40" y="355" width="120" height="60" as="geometry" />
        </mxCell>
        <mxCell id="9zkR6LWzIAb3a3dBUjrS-7" value="Assistant" style="swimlane;startSize=20;fontSize=16;" parent="9zkR6LWzIAb3a3dBUjrS-6" vertex="1">
          <mxGeometry x="200" y="20" width="200" height="770" as="geometry">
            <mxRectangle x="200" y="20" width="30" height="770" as="alternateBounds" />
          </mxGeometry>
        </mxCell>
        <mxCell id="YTCKpt7F9UdarP6xJWkP-8" style="edgeStyle=orthogonalEdgeStyle;rounded=0;orthogonalLoop=1;jettySize=auto;html=1;exitX=0.5;exitY=1;exitDx=0;exitDy=0;fontSize=16;" parent="9zkR6LWzIAb3a3dBUjrS-7" source="YTCKpt7F9UdarP6xJWkP-5" target="YTCKpt7F9UdarP6xJWkP-7" edge="1">
          <mxGeometry relative="1" as="geometry" />
        </mxCell>
        <mxCell id="YTCKpt7F9UdarP6xJWkP-5" value="check data (according to guidelines)" style="rounded=0;whiteSpace=wrap;html=1;fontSize=16;" parent="9zkR6LWzIAb3a3dBUjrS-7" vertex="1">
          <mxGeometry x="40" y="59" width="120" height="60" as="geometry" />
        </mxCell>
        <mxCell id="YTCKpt7F9UdarP6xJWkP-14" value="no" style="edgeStyle=orthogonalEdgeStyle;rounded=0;orthogonalLoop=1;jettySize=auto;html=1;exitX=0.5;exitY=1;exitDx=0;exitDy=0;entryX=0.5;entryY=0;entryDx=0;entryDy=0;fontSize=16;" parent="9zkR6LWzIAb3a3dBUjrS-7" source="YTCKpt7F9UdarP6xJWkP-7" target="YTCKpt7F9UdarP6xJWkP-12" edge="1">
          <mxGeometry x="-0.5556" relative="1" as="geometry">
            <mxPoint x="100" y="229" as="sourcePoint" />
            <mxPoint x="100" y="264" as="targetPoint" />
            <Array as="points">
              <mxPoint x="100" y="249" />
              <mxPoint x="100" y="249" />
            </Array>
            <mxPoint as="offset" />
          </mxGeometry>
        </mxCell>
        <mxCell id="YTCKpt7F9UdarP6xJWkP-7" value="&lt;div&gt;everything is OK&lt;/div&gt;" style="rhombus;whiteSpace=wrap;html=1;fontSize=16;" parent="9zkR6LWzIAb3a3dBUjrS-7" vertex="1">
          <mxGeometry x="60" y="130" width="80" height="80" as="geometry" />
        </mxCell>
        <mxCell id="YTCKpt7F9UdarP6xJWkP-32" style="edgeStyle=orthogonalEdgeStyle;rounded=0;orthogonalLoop=1;jettySize=auto;html=1;exitX=0.5;exitY=1;exitDx=0;exitDy=0;entryX=0.5;entryY=0;entryDx=0;entryDy=0;fontSize=16;" parent="9zkR6LWzIAb3a3dBUjrS-7" source="YTCKpt7F9UdarP6xJWkP-11" target="YTCKpt7F9UdarP6xJWkP-31" edge="1">
          <mxGeometry relative="1" as="geometry" />
        </mxCell>
        <mxCell id="YTCKpt7F9UdarP6xJWkP-11" value="upload data to LEAD" style="rounded=0;whiteSpace=wrap;html=1;fontSize=16;strokeWidth=1;" parent="9zkR6LWzIAb3a3dBUjrS-7" vertex="1">
          <mxGeometry x="40" y="539" width="120" height="60" as="geometry" />
        </mxCell>
        <mxCell id="YTCKpt7F9UdarP6xJWkP-10" value="yes" style="edgeStyle=orthogonalEdgeStyle;rounded=0;orthogonalLoop=1;jettySize=auto;html=1;exitX=0;exitY=0.5;exitDx=0;exitDy=0;fontSize=16;entryX=0.5;entryY=0;entryDx=0;entryDy=0;" parent="9zkR6LWzIAb3a3dBUjrS-7" source="YTCKpt7F9UdarP6xJWkP-7" target="YTCKpt7F9UdarP6xJWkP-11" edge="1">
          <mxGeometry x="-0.7297" relative="1" as="geometry">
            <mxPoint x="100" y="329" as="targetPoint" />
            <Array as="points">
              <mxPoint x="20" y="170" />
              <mxPoint x="20" y="519" />
              <mxPoint x="100" y="519" />
            </Array>
            <mxPoint as="offset" />
          </mxGeometry>
        </mxCell>
        <mxCell id="YTCKpt7F9UdarP6xJWkP-12" value="put on agenda of &quot;Hub Council&quot;" style="rounded=0;whiteSpace=wrap;html=1;fontSize=16;strokeWidth=1;" parent="9zkR6LWzIAb3a3dBUjrS-7" vertex="1">
          <mxGeometry x="40" y="245" width="120" height="60" as="geometry" />
        </mxCell>
        <mxCell id="YTCKpt7F9UdarP6xJWkP-22" value="communicate requirements with candidate" style="rounded=0;whiteSpace=wrap;html=1;fontSize=16;strokeWidth=1;" parent="9zkR6LWzIAb3a3dBUjrS-7" vertex="1">
          <mxGeometry x="40" y="355" width="120" height="60" as="geometry" />
        </mxCell>
        <mxCell id="YTCKpt7F9UdarP6xJWkP-31" value="inform council about new profile" style="rounded=0;whiteSpace=wrap;html=1;fontSize=16;strokeWidth=1;" parent="9zkR6LWzIAb3a3dBUjrS-7" vertex="1">
          <mxGeometry x="40" y="620" width="120" height="60" as="geometry" />
        </mxCell>
        <mxCell id="9zkR6LWzIAb3a3dBUjrS-8" value="Hub Council" style="swimlane;startSize=20;fontSize=16;" parent="9zkR6LWzIAb3a3dBUjrS-6" vertex="1">
          <mxGeometry x="400" y="20" width="200" height="770" as="geometry">
            <mxRectangle x="230" y="20" width="30" height="770" as="alternateBounds" />
          </mxGeometry>
        </mxCell>
        <mxCell id="YTCKpt7F9UdarP6xJWkP-2" value="(if applicable) update Guidelines accordingly" style="rounded=0;whiteSpace=wrap;html=1;fontSize=16;" parent="9zkR6LWzIAb3a3dBUjrS-8" vertex="1">
          <mxGeometry x="25" y="420" width="150" height="60" as="geometry" />
        </mxCell>
        <mxCell id="YTCKpt7F9UdarP6xJWkP-26" style="edgeStyle=orthogonalEdgeStyle;rounded=0;orthogonalLoop=1;jettySize=auto;html=1;exitX=0.5;exitY=1;exitDx=0;exitDy=0;entryX=0.5;entryY=0;entryDx=0;entryDy=0;fontSize=16;" parent="9zkR6LWzIAb3a3dBUjrS-8" source="YTCKpt7F9UdarP6xJWkP-15" target="YTCKpt7F9UdarP6xJWkP-2" edge="1">
          <mxGeometry relative="1" as="geometry" />
        </mxCell>
        <mxCell id="YTCKpt7F9UdarP6xJWkP-15" value="discuss and decide if additional info is required" style="rounded=0;whiteSpace=wrap;html=1;fontSize=16;strokeWidth=1;" parent="9zkR6LWzIAb3a3dBUjrS-8" vertex="1">
          <mxGeometry x="20" y="240" width="160" height="70" as="geometry" />
        </mxCell>
        <mxCell id="YTCKpt7F9UdarP6xJWkP-16" style="edgeStyle=orthogonalEdgeStyle;rounded=0;orthogonalLoop=1;jettySize=auto;html=1;exitX=1;exitY=0.5;exitDx=0;exitDy=0;entryX=0;entryY=0.5;entryDx=0;entryDy=0;fontSize=16;" parent="9zkR6LWzIAb3a3dBUjrS-6" source="YTCKpt7F9UdarP6xJWkP-12" target="YTCKpt7F9UdarP6xJWkP-15" edge="1">
          <mxGeometry relative="1" as="geometry" />
        </mxCell>
        <mxCell id="YTCKpt7F9UdarP6xJWkP-21" style="edgeStyle=orthogonalEdgeStyle;rounded=0;orthogonalLoop=1;jettySize=auto;html=1;exitX=1;exitY=0.5;exitDx=0;exitDy=0;fontSize=16;" parent="9zkR6LWzIAb3a3dBUjrS-6" source="YTCKpt7F9UdarP6xJWkP-20" target="YTCKpt7F9UdarP6xJWkP-5" edge="1">
          <mxGeometry relative="1" as="geometry" />
        </mxCell>
        <mxCell id="YTCKpt7F9UdarP6xJWkP-23" style="edgeStyle=orthogonalEdgeStyle;rounded=0;orthogonalLoop=1;jettySize=auto;html=1;exitX=0.5;exitY=1;exitDx=0;exitDy=0;entryX=1;entryY=0.5;entryDx=0;entryDy=0;fontSize=16;" parent="9zkR6LWzIAb3a3dBUjrS-6" source="YTCKpt7F9UdarP6xJWkP-15" target="YTCKpt7F9UdarP6xJWkP-22" edge="1">
          <mxGeometry relative="1" as="geometry" />
        </mxCell>
        <mxCell id="YTCKpt7F9UdarP6xJWkP-25" style="edgeStyle=orthogonalEdgeStyle;rounded=0;orthogonalLoop=1;jettySize=auto;html=1;exitX=0;exitY=0.5;exitDx=0;exitDy=0;entryX=1;entryY=0.5;entryDx=0;entryDy=0;fontSize=16;" parent="9zkR6LWzIAb3a3dBUjrS-6" source="YTCKpt7F9UdarP6xJWkP-22" target="YTCKpt7F9UdarP6xJWkP-24" edge="1">
          <mxGeometry relative="1" as="geometry" />
        </mxCell>
        <mxCell id="YTCKpt7F9UdarP6xJWkP-27" style="edgeStyle=orthogonalEdgeStyle;rounded=0;orthogonalLoop=1;jettySize=auto;html=1;exitX=0.5;exitY=0;exitDx=0;exitDy=0;entryX=0;entryY=0.5;entryDx=0;entryDy=0;fontSize=16;" parent="9zkR6LWzIAb3a3dBUjrS-6" source="YTCKpt7F9UdarP6xJWkP-24" target="YTCKpt7F9UdarP6xJWkP-5" edge="1">
          <mxGeometry relative="1" as="geometry">
            <Array as="points">
              <mxPoint x="100" y="170" />
              <mxPoint x="220" y="170" />
              <mxPoint x="220" y="109" />
            </Array>
          </mxGeometry>
        </mxCell>
        <mxCell id="YTCKpt7F9UdarP6xJWkP-4" value="" style="shape=note;whiteSpace=wrap;html=1;backgroundOutline=1;darkOpacity=0.05;fontSize=16;size=19;" parent="1" vertex="1">
          <mxGeometry x="100" y="150" width="46.5" height="70" as="geometry" />
        </mxCell>
        <mxCell id="YTCKpt7F9UdarP6xJWkP-28" value="&lt;div&gt;Guidelines&lt;/div&gt;&lt;div&gt;&lt;br&gt;&lt;/div&gt;" style="shape=note;whiteSpace=wrap;html=1;backgroundOutline=1;darkOpacity=0.05;fontSize=16;size=19;" parent="1" vertex="1">
          <mxGeometry x="760" y="715" width="46.5" height="70" as="geometry" />
        </mxCell>
        <mxCell id="YTCKpt7F9UdarP6xJWkP-29" style="edgeStyle=orthogonalEdgeStyle;rounded=0;orthogonalLoop=1;jettySize=auto;html=1;exitX=1;exitY=0.5;exitDx=0;exitDy=0;entryX=0;entryY=0.5;entryDx=0;entryDy=0;entryPerimeter=0;fontSize=16;" parent="1" source="YTCKpt7F9UdarP6xJWkP-2" target="YTCKpt7F9UdarP6xJWkP-28" edge="1">
          <mxGeometry relative="1" as="geometry" />
        </mxCell>
        <mxCell id="YTCKpt7F9UdarP6xJWkP-30" value="todo: assistant asks directly for update without consulting councel" style="rounded=0;whiteSpace=wrap;html=1;fontSize=16;strokeWidth=1;fillColor=#f8cecc;strokeColor=#b85450;" parent="1" vertex="1">
          <mxGeometry x="760" y="440" width="120" height="100" as="geometry" />
        </mxCell>
        <mxCell id="1DivYk6FBOnji3a8vuyc-1" value="Text" style="text;html=1;strokeColor=none;fillColor=none;align=center;verticalAlign=middle;whiteSpace=wrap;rounded=0;" vertex="1" parent="1">
          <mxGeometry x="806.5" y="140" width="60" height="30" as="geometry" />
        </mxCell>
      </root>
    </mxGraphModel>
  </diagram>
</mxfile>
